<svg aria-hidden="true" style="position: absolute; width: 0; height: 0; overflow: hidden;" version="1.1" xmlns="http://www.w3.org/2000/svg" xmlns:xlink="http://www.w3.org/1999/xlink">
<defs>
<symbol id="icon-Client-yaco" viewBox="0 0 59 32">
<path fill="#afb1b8" style="fill: var(--color1, #afb1b8)" d="M24.348 8l2.438 2.308-4.524-0.003v11.196h11.826v-4.281l2.435 2.305v-11.525h-12.174zM33.98 16.949l-6.911-6.543h6.911v6.543zM31.834 19.863h-7.702v-7.53h0.544v7.020h7.157v0.51zM25.951 22.991l-0.285 0.586-0.285-0.586h-0.239l0.415 0.781v0.455h0.216v-0.455l0.414-0.781h-0.238zM26.308 24.227l0.1-0.288h0.479l0.101 0.288h0.224l-0.468-1.236h-0.193l-0.467 1.236h0.223zM26.648 23.253l0.179 0.513h-0.358l0.179-0.513zM27.781 23.737c-0.031 0.048-0.047 0.1-0.047 0.157 0 0.104 0.037 0.189 0.11 0.254s0.172 0.097 0.294 0.097 0.228-0.033 0.316-0.099l0.070 0.082h0.239l-0.182-0.215c0.071-0.097 0.107-0.222 0.107-0.374h-0.179c0 0.083-0.017 0.159-0.052 0.227l-0.239-0.282 0.084-0.061c0.059-0.043 0.102-0.086 0.128-0.129s0.039-0.091 0.039-0.143c0-0.078-0.029-0.143-0.087-0.196s-0.131-0.080-0.221-0.080c-0.1 0-0.179 0.028-0.238 0.085s-0.088 0.133-0.088 0.229c0 0.040 0.009 0.081 0.028 0.123s0.053 0.094 0.101 0.155c-0.092 0.066-0.153 0.123-0.184 0.171zM28.339 24.010c-0.061 0.046-0.126 0.070-0.195 0.070-0.062 0-0.111-0.018-0.148-0.053s-0.055-0.082-0.055-0.139c0-0.066 0.034-0.125 0.102-0.177l0.026-0.019 0.27 0.318zM28.117 23.462c-0.058-0.072-0.087-0.132-0.087-0.179 0-0.041 0.012-0.076 0.036-0.103s0.056-0.041 0.096-0.041c0.037 0 0.068 0.012 0.093 0.035s0.037 0.050 0.037 0.082c0 0.049-0.018 0.089-0.053 0.12l-0.026 0.021-0.094 0.065zM30.13 24.134c0.085-0.074 0.134-0.177 0.146-0.309h-0.214c-0.011 0.088-0.038 0.151-0.081 0.189s-0.106 0.057-0.19 0.057c-0.092 0-0.162-0.035-0.211-0.105s-0.071-0.172-0.071-0.306v-0.11c0.001-0.132 0.027-0.232 0.076-0.3s0.122-0.103 0.216-0.103c0.080 0 0.141 0.020 0.183 0.059s0.068 0.103 0.078 0.192h0.214c-0.014-0.135-0.062-0.24-0.145-0.314s-0.193-0.111-0.329-0.111c-0.101 0-0.191 0.024-0.268 0.072s-0.136 0.117-0.177 0.206c-0.041 0.089-0.062 0.192-0.062 0.308v0.115c0.002 0.114 0.023 0.214 0.064 0.3s0.099 0.153 0.173 0.2c0.075 0.046 0.162 0.070 0.261 0.070 0.141 0 0.254-0.037 0.339-0.11zM31.392 23.961c0.042-0.092 0.063-0.198 0.063-0.319v-0.069c-0.001-0.121-0.022-0.226-0.065-0.317s-0.103-0.161-0.181-0.209c-0.078-0.049-0.167-0.073-0.267-0.073s-0.19 0.025-0.268 0.074c-0.078 0.049-0.138 0.119-0.181 0.211s-0.064 0.199-0.064 0.319v0.070c0.001 0.118 0.022 0.223 0.065 0.313s0.104 0.161 0.182 0.21c0.079 0.049 0.168 0.073 0.268 0.073 0.101 0 0.191-0.024 0.268-0.073s0.138-0.119 0.18-0.211zM31.162 23.262c0.052 0.073 0.078 0.178 0.078 0.315v0.065c0 0.139-0.026 0.245-0.077 0.318s-0.124 0.109-0.219 0.109c-0.094 0-0.168-0.037-0.221-0.111s-0.079-0.179-0.079-0.315v-0.071c0.001-0.133 0.028-0.236 0.080-0.308s0.125-0.11 0.218-0.11c0.095 0 0.168 0.037 0.22 0.11z"></path>
</symbol>
<symbol id="icon-envelope-hover" viewBox="0 0 43 32">
<path fill="#2196f3" style="fill: var(--color1, #2196f3)" d="M38.667 0h-34.667c-2.206 0-4 1.794-4 4v24c0 2.206 1.794 4 4 4h34.667c2.206 0 4-1.794 4-4v-24c0-2.206-1.794-4-4-4zM38.667 2.667c0.181 0 0.353 0.038 0.511 0.103l-17.844 15.466-17.844-15.466c0.158-0.066 0.33-0.103 0.511-0.103h34.667zM38.667 29.333h-34.667c-0.736 0-1.333-0.598-1.333-1.333v-22.413l17.793 15.421c0.251 0.217 0.563 0.326 0.874 0.326s0.622-0.108 0.874-0.326l17.793-15.421v22.413c0 0.736-0.598 1.333-1.333 1.333z"></path>
</symbol>
<symbol id="icon-smartphone" viewBox="0 0 20 32">
<path fill="#757575" style="fill: var(--color2, #757575)" d="M17 0h-14c-1.654 0-3 1.346-3 3v26c0 1.654 1.346 3 3 3h14c1.654 0 3-1.346 3-3v-26c0-1.654-1.346-3-3-3zM3 2h14c0.552 0 1 0.448 1 1v21h-16v-21c0-0.552 0.448-1 1-1zM17 30h-14c-0.552 0-1-0.448-1-1v-3h16v3c0 0.552-0.448 1-1 1z"></path>
<path fill="#757575" style="fill: var(--color2, #757575)" d="M4.707 27.478c0.391 0.365 0.391 0.956 0 1.321s-1.024 0.365-1.414 0c-0.391-0.365-0.391-0.956 0-1.321s1.024-0.365 1.414 0z"></path>
</symbol>
<symbol id="icon-envelope-portf" viewBox="0 0 43 32">
<path fill="#757575" style="fill: var(--color1, #757575)" d="M38.667 0h-34.667c-2.206 0-4 1.794-4 4v24c0 2.206 1.794 4 4 4h34.667c2.206 0 4-1.794 4-4v-24c0-2.206-1.794-4-4-4zM38.667 2.667c0.181 0 0.353 0.038 0.511 0.103l-17.844 15.466-17.844-15.466c0.158-0.066 0.33-0.103 0.511-0.103h34.667zM38.667 29.333h-34.667c-0.736 0-1.333-0.598-1.333-1.333v-22.413l17.793 15.421c0.251 0.217 0.563 0.326 0.874 0.326s0.622-0.108 0.874-0.326l17.793-15.421v22.413c0 0.736-0.598 1.333-1.333 1.333z"></path>
</symbol>
<symbol id="icon-Client-tag-line" viewBox="0 0 59 32">
<path fill="#afb1b8" style="fill: var(--color1, #afb1b8)" d="M28.561 7.629h-0.047c-0.073-0.004-0.146-0.006-0.219-0.008v0h-0.158c-0.138 0-0.279 0.004-0.419 0.011-0.011-0.001-0.021-0.001-0.032 0-1.268 0.072-2.51 0.389-3.658 0.933l-0.15 0.073v7.701l0.352-0.119c0.309-0.106 0.638-0.202 0.978-0.29 0.921-0.236 1.866-0.362 2.816-0.374v1.012c-0.126 0.001-0.248 0.004-0.37 0.011h-0.029c-0.731 0.040-1.457 0.151-2.166 0.333-0.899 0.225-1.766 0.563-2.581 1.006v-9.877c0.846-0.494 1.758-0.864 2.707-1.101 0.834-0.215 1.691-0.326 2.552-0.329h0.149c0.178 0.004 0.351 0.012 0.514 0.025 0.429 0.030 0.854 0.098 1.271 0.203v0.996c-0.405-0.094-0.817-0.156-1.232-0.186-0.008-0.001-0.017-0.001-0.025-0.002-0.086-0.007-0.172-0.015-0.252-0.015zM30.314 8.647c0.221 0.017 0.45 0.025 0.681 0.025 0.905-0.003 1.806-0.119 2.683-0.344 0.898-0.226 1.765-0.564 2.58-1.007v9.701c-0.847 0.493-1.758 0.864-2.708 1.101-0.834 0.214-1.691 0.325-2.552 0.328-0.652 0.005-1.302-0.071-1.936-0.228v-9.764c0.15 0.034 0.304 0.066 0.46 0.093 0.257 0.043 0.528 0.075 0.792 0.095zM35.251 8.723l-0.352 0.119c-0.324 0.109-0.65 0.206-0.978 0.293-0.956 0.246-1.938 0.371-2.924 0.375-0.23 0-0.441-0.006-0.645-0.019l-0.281-0.019v7.922l0.241 0.021c0.224 0.019 0.454 0.029 0.686 0.029 0.777-0.003 1.55-0.103 2.303-0.298 0.62-0.155 1.222-0.372 1.799-0.647l0.151-0.073v-7.704z"></path>
<path fill="#afb1b8" style="fill: var(--color1, #afb1b8)" d="M23.561 21.291c-0.051-0.052-0.112-0.094-0.179-0.121s-0.14-0.040-0.213-0.037c-0.077-0.001-0.154 0.013-0.226 0.042-0.066 0.026-0.126 0.066-0.176 0.116s-0.088 0.111-0.113 0.177c-0.028 0.069-0.041 0.144-0.041 0.218v1.32c-0.003 0.093 0.015 0.186 0.052 0.271 0.031 0.068 0.076 0.128 0.132 0.177 0.053 0.044 0.115 0.076 0.181 0.094 0.064 0.018 0.13 0.027 0.197 0.027 0.073 0.001 0.146-0.015 0.213-0.046 0.066-0.029 0.126-0.070 0.176-0.122 0.049-0.051 0.088-0.111 0.115-0.177 0.028-0.067 0.043-0.138 0.042-0.21v-0.148h-0.345v0.118c0.001 0.040-0.006 0.080-0.020 0.118-0.011 0.028-0.028 0.053-0.050 0.074-0.021 0.017-0.046 0.030-0.072 0.038-0.023 0.008-0.048 0.012-0.072 0.012-0.031 0.004-0.062-0.001-0.090-0.014s-0.053-0.032-0.071-0.057c-0.033-0.053-0.048-0.115-0.046-0.177v-1.23c-0.002-0.068 0.012-0.136 0.042-0.197 0.018-0.028 0.043-0.050 0.073-0.064s0.063-0.019 0.096-0.015c0.030-0.001 0.059 0.005 0.086 0.018s0.050 0.032 0.068 0.056c0.039 0.051 0.059 0.113 0.057 0.177v0.114h0.341v-0.134c0.001-0.079-0.014-0.157-0.042-0.231-0.025-0.069-0.065-0.132-0.115-0.186z"></path>
<path fill="#afb1b8" style="fill: var(--color1, #afb1b8)" d="M25.61 21.276c-0.11-0.093-0.249-0.144-0.392-0.145-0.070 0-0.14 0.013-0.206 0.037-0.067 0.024-0.129 0.061-0.182 0.108-0.057 0.051-0.103 0.114-0.134 0.185-0.035 0.081-0.052 0.168-0.050 0.256v1.266c-0.002 0.089 0.015 0.177 0.050 0.259 0.031 0.068 0.077 0.128 0.134 0.177 0.053 0.049 0.115 0.087 0.182 0.111 0.066 0.024 0.136 0.037 0.206 0.037s0.14-0.013 0.206-0.037c0.069-0.025 0.132-0.063 0.187-0.111s0.099-0.11 0.13-0.177c0.035-0.082 0.053-0.17 0.050-0.259v-1.266c0.002-0.088-0.015-0.175-0.050-0.256-0.031-0.070-0.075-0.133-0.13-0.185zM25.449 22.982c0.003 0.034-0.002 0.068-0.014 0.099s-0.031 0.060-0.055 0.084c-0.046 0.038-0.103 0.059-0.162 0.059s-0.117-0.021-0.162-0.059c-0.024-0.023-0.043-0.052-0.055-0.084s-0.017-0.066-0.014-0.099v-1.266c-0.003-0.034 0.002-0.068 0.014-0.099s0.031-0.060 0.055-0.084c0.046-0.038 0.103-0.059 0.162-0.059s0.117 0.021 0.162 0.059c0.024 0.023 0.043 0.052 0.055 0.084s0.017 0.066 0.014 0.099v1.266z"></path>
<path fill="#afb1b8" style="fill: var(--color1, #afb1b8)" d="M28.302 23.548v-2.396h-0.332l-0.436 1.268h-0.006l-0.439-1.268h-0.328v2.396h0.342v-1.458h0.006l0.335 1.030h0.171l0.338-1.030h0.006v1.458h0.342z"></path>
<path fill="#afb1b8" style="fill: var(--color1, #afb1b8)" d="M30.246 21.32c-0.053-0.059-0.119-0.104-0.194-0.131-0.080-0.026-0.164-0.039-0.248-0.037h-0.509v2.396h0.341v-0.936h0.176c0.107 0.005 0.213-0.018 0.308-0.065 0.078-0.043 0.142-0.106 0.187-0.183 0.039-0.064 0.066-0.135 0.078-0.209 0.013-0.090 0.020-0.181 0.018-0.272 0.003-0.115-0.008-0.23-0.033-0.342-0.023-0.083-0.066-0.159-0.126-0.22zM30.070 22.050c-0.001 0.043-0.012 0.086-0.032 0.125-0.020 0.037-0.050 0.066-0.088 0.084-0.051 0.023-0.106 0.033-0.161 0.030h-0.156v-0.815h0.176c0.053-0.003 0.106 0.008 0.154 0.030 0.035 0.020 0.063 0.051 0.080 0.088 0.019 0.042 0.029 0.087 0.030 0.134 0 0.050 0 0.103 0 0.159s0.003 0.113 0 0.165h-0.003z"></path>
<path fill="#afb1b8" style="fill: var(--color1, #afb1b8)" d="M31.864 21.152h-0.28l-0.528 2.396h0.341l0.1-0.515h0.465l0.1 0.515h0.341l-0.541-2.396zM31.549 22.706l0.168-0.869h0.006l0.167 0.869h-0.341z"></path>
<path fill="#afb1b8" style="fill: var(--color1, #afb1b8)" d="M34.069 22.595h-0.006l-0.516-1.443h-0.328v2.396h0.341v-1.441h0.007l0.522 1.441h0.321v-2.396h-0.341v1.443z"></path>
<path fill="#afb1b8" style="fill: var(--color1, #afb1b8)" d="M36.156 21.152l-0.275 0.953h-0.007l-0.274-0.953h-0.362l0.469 1.383v1.013h0.342v-1.013l0.469-1.383h-0.361z"></path>
<path fill="#afb1b8" style="fill: var(--color1, #afb1b8)" d="M22.609 24.224h0.165v0.462h0.112v-0.462h0.164v-0.095h-0.44v0.095z"></path>
<path fill="#afb1b8" style="fill: var(--color1, #afb1b8)" d="M23.992 24.13l-0.216 0.556h0.119l0.046-0.126h0.222l0.047 0.126h0.121l-0.221-0.556h-0.119zM23.974 24.466l0.076-0.206 0.076 0.206h-0.151z"></path>
<path fill="#afb1b8" style="fill: var(--color1, #afb1b8)" d="M25.359 24.481h0.128v0.072c-0.038 0.030-0.084 0.047-0.132 0.047-0.022 0.001-0.045-0.003-0.065-0.012s-0.039-0.023-0.053-0.041c-0.029-0.042-0.044-0.093-0.041-0.145 0-0.124 0.054-0.186 0.16-0.186 0.028-0.003 0.056 0.005 0.079 0.021s0.040 0.040 0.047 0.068l0.11-0.021c-0.024-0.109-0.102-0.164-0.236-0.164-0.072-0.002-0.141 0.024-0.194 0.072-0.028 0.028-0.050 0.061-0.064 0.098s-0.019 0.077-0.017 0.116c-0.003 0.076 0.022 0.151 0.071 0.209 0.027 0.028 0.060 0.050 0.097 0.064s0.076 0.020 0.114 0.017c0.087 0.002 0.172-0.029 0.236-0.088v-0.219h-0.241v0.094z"></path>
<path fill="#afb1b8" style="fill: var(--color1, #afb1b8)" d="M26.756 24.13h-0.113v0.556h0.39v-0.095h-0.277v-0.462z"></path>
<path fill="#afb1b8" style="fill: var(--color1, #afb1b8)" d="M27.937 24.13h-0.113v0.556h0.113v-0.556z"></path>
<path fill="#afb1b8" style="fill: var(--color1, #afb1b8)" d="M29.091 24.501l-0.228-0.372h-0.109v0.556h0.105v-0.363l0.224 0.363h0.112v-0.556h-0.103v0.372z"></path>
<path fill="#afb1b8" style="fill: var(--color1, #afb1b8)" d="M30.135 24.441h0.277v-0.095h-0.277v-0.122h0.298v-0.095h-0.411v0.556h0.422v-0.095h-0.31v-0.15z"></path>
<path fill="#afb1b8" style="fill: var(--color1, #afb1b8)" d="M32.665 24.349h-0.219v-0.219h-0.112v0.556h0.112v-0.243h0.219v0.243h0.112v-0.556h-0.112v0.219z"></path>
<path fill="#afb1b8" style="fill: var(--color1, #afb1b8)" d="M33.715 24.441h0.278v-0.095h-0.278v-0.122h0.299v-0.095h-0.411v0.556h0.421v-0.095h-0.31v-0.15z"></path>
<path fill="#afb1b8" style="fill: var(--color1, #afb1b8)" d="M35.138 24.441c0.097-0.015 0.146-0.066 0.146-0.155 0.003-0.024-0.001-0.048-0.010-0.069s-0.025-0.041-0.044-0.054c-0.050-0.025-0.106-0.037-0.163-0.033h-0.236v0.556h0.112v-0.233h0.022c0.024-0.001 0.048 0.003 0.070 0.012 0.016 0.010 0.030 0.024 0.040 0.041l0.121 0.177h0.134l-0.068-0.109c-0.030-0.054-0.072-0.099-0.123-0.134zM35.026 24.364h-0.082v-0.14h0.088c0.038-0.003 0.077 0.001 0.113 0.013 0.008 0.007 0.015 0.016 0.019 0.026s0.006 0.021 0.006 0.032c-0 0.011-0.003 0.021-0.008 0.031s-0.013 0.018-0.021 0.024c-0.037 0.011-0.075 0.016-0.114 0.013z"></path>
<path fill="#afb1b8" style="fill: var(--color1, #afb1b8)" d="M36.212 24.441h0.277v-0.095h-0.277v-0.122h0.299v-0.095h-0.412v0.556h0.422v-0.095h-0.31v-0.15z"></path>
</symbol>
<symbol id="icon-Client-company" viewBox="0 0 59 32">
<path fill="#afb1b8" style="fill: var(--color1, #afb1b8)" d="M23.793 22.644c0.006 0 0.011 0.001 0.016 0.003s0.010 0.005 0.013 0.008l0.076 0.073c-0.059 0.059-0.132 0.106-0.213 0.138-0.096 0.035-0.199 0.052-0.302 0.049-0.098 0.002-0.194-0.014-0.285-0.046-0.081-0.030-0.154-0.074-0.214-0.13-0.061-0.058-0.108-0.127-0.138-0.201-0.033-0.083-0.050-0.17-0.048-0.258-0.001-0.088 0.016-0.176 0.052-0.259 0.033-0.075 0.083-0.143 0.147-0.201 0.065-0.057 0.142-0.101 0.228-0.131 0.093-0.031 0.193-0.047 0.293-0.046 0.093-0.002 0.186 0.012 0.272 0.042 0.075 0.028 0.144 0.068 0.204 0.116l-0.064 0.077c-0.004 0.005-0.010 0.010-0.016 0.014-0.008 0.004-0.017 0.006-0.026 0.006s-0.019-0.003-0.027-0.008l-0.034-0.021-0.047-0.026c-0.020-0.010-0.042-0.018-0.064-0.026-0.028-0.009-0.057-0.016-0.086-0.021-0.037-0.006-0.075-0.009-0.113-0.008-0.072-0.001-0.144 0.011-0.211 0.035-0.062 0.022-0.119 0.055-0.165 0.097-0.047 0.045-0.084 0.098-0.107 0.155-0.027 0.066-0.040 0.135-0.039 0.204-0.001 0.071 0.012 0.141 0.039 0.208 0.023 0.057 0.059 0.109 0.105 0.154 0.043 0.042 0.097 0.075 0.157 0.096 0.062 0.022 0.128 0.034 0.195 0.033 0.039 0.001 0.077-0.002 0.116-0.007 0.063-0.007 0.123-0.026 0.175-0.055 0.027-0.015 0.052-0.032 0.075-0.051 0.010-0.008 0.023-0.013 0.036-0.013z"></path>
<path fill="#afb1b8" style="fill: var(--color1, #afb1b8)" d="M25.984 22.28c0.001 0.087-0.016 0.174-0.051 0.256-0.031 0.074-0.080 0.142-0.143 0.199s-0.14 0.101-0.224 0.131c-0.186 0.062-0.391 0.062-0.577 0-0.084-0.030-0.16-0.074-0.223-0.131-0.063-0.058-0.112-0.126-0.144-0.201-0.068-0.166-0.068-0.347 0-0.513 0.032-0.075 0.081-0.143 0.144-0.202 0.064-0.055 0.139-0.098 0.223-0.126 0.185-0.063 0.391-0.063 0.577 0 0.084 0.030 0.16 0.074 0.224 0.131s0.111 0.125 0.143 0.199c0.035 0.082 0.052 0.17 0.051 0.258zM25.785 22.28c0.002-0.070-0.011-0.14-0.036-0.206-0.021-0.057-0.056-0.109-0.102-0.154-0.044-0.042-0.099-0.076-0.16-0.097-0.135-0.045-0.284-0.045-0.419 0-0.061 0.022-0.116 0.055-0.16 0.097-0.046 0.044-0.081 0.097-0.102 0.154-0.048 0.134-0.048 0.278 0 0.412 0.021 0.057 0.056 0.11 0.102 0.154 0.045 0.042 0.099 0.075 0.16 0.096 0.135 0.044 0.284 0.044 0.419 0 0.061-0.021 0.116-0.054 0.16-0.096 0.046-0.045 0.080-0.097 0.102-0.154 0.025-0.066 0.038-0.136 0.036-0.206z"></path>
<path fill="#afb1b8" style="fill: var(--color1, #afb1b8)" d="M27.479 22.496l0.020 0.046c0.008-0.017 0.014-0.031 0.022-0.046s0.015-0.031 0.025-0.045l0.485-0.765c0.009-0.013 0.018-0.021 0.027-0.024 0.013-0.003 0.026-0.005 0.040-0.004h0.143v1.245h-0.17v-0.915c0-0.012 0-0.025 0-0.039s-0.001-0.029 0-0.043l-0.487 0.776c-0.006 0.012-0.016 0.021-0.029 0.028s-0.027 0.010-0.042 0.010h-0.027c-0.015 0-0.029-0.003-0.042-0.010s-0.022-0.017-0.028-0.028l-0.502-0.781c0 0.015 0 0.030 0 0.044s0 0.028 0 0.040v0.915h-0.164v-1.242h0.143c0.013-0.001 0.027 0.001 0.040 0.004 0.012 0.005 0.021 0.014 0.027 0.024l0.495 0.766c0.010 0.014 0.018 0.029 0.025 0.044z"></path>
<path fill="#afb1b8" style="fill: var(--color1, #afb1b8)" d="M29.302 22.434v0.466h-0.19v-1.243h0.423c0.080-0.001 0.159 0.008 0.236 0.027 0.061 0.015 0.118 0.042 0.167 0.077 0.042 0.034 0.075 0.075 0.095 0.122 0.022 0.051 0.033 0.105 0.032 0.159 0.001 0.055-0.011 0.109-0.035 0.159-0.023 0.048-0.058 0.090-0.102 0.124-0.049 0.037-0.106 0.066-0.168 0.082-0.074 0.021-0.151 0.030-0.229 0.029l-0.23-0.003zM29.302 22.3h0.23c0.050 0.001 0.099-0.006 0.147-0.019 0.039-0.011 0.075-0.030 0.106-0.054 0.029-0.023 0.051-0.051 0.064-0.082 0.016-0.033 0.023-0.069 0.023-0.105 0.002-0.035-0.004-0.069-0.019-0.101s-0.037-0.061-0.066-0.085c-0.072-0.049-0.163-0.073-0.255-0.067h-0.23v0.512z"></path>
<path fill="#afb1b8" style="fill: var(--color1, #afb1b8)" d="M31.851 22.902h-0.15c-0.015 0-0.030-0.004-0.042-0.012-0.011-0.008-0.019-0.018-0.025-0.029l-0.129-0.301h-0.648l-0.134 0.301c-0.005 0.011-0.013 0.021-0.024 0.028-0.012 0.008-0.027 0.013-0.043 0.012h-0.15l0.569-1.245h0.197l0.577 1.245zM30.913 22.439h0.535l-0.226-0.507c-0.017-0.038-0.031-0.077-0.043-0.117l-0.022 0.065c-0.007 0.020-0.014 0.038-0.021 0.053l-0.224 0.506z"></path>
<path fill="#afb1b8" style="fill: var(--color1, #afb1b8)" d="M32.671 21.662c0.011 0.005 0.021 0.013 0.028 0.022l0.83 0.939c0-0.015 0-0.030 0-0.044s0-0.028 0-0.041v-0.882h0.17v1.245h-0.095c-0.014 0-0.027-0.002-0.039-0.007s-0.022-0.014-0.030-0.023l-0.829-0.938c0.001 0.014 0.001 0.029 0 0.043s0 0.026 0 0.038v0.887h-0.17v-1.245h0.101c0.012-0 0.023 0.002 0.034 0.006z"></path>
<path fill="#afb1b8" style="fill: var(--color1, #afb1b8)" d="M35.097 22.407v0.494h-0.19v-0.494l-0.525-0.75h0.17c0.015-0.001 0.029 0.003 0.041 0.011 0.010 0.008 0.019 0.017 0.026 0.028l0.328 0.484c0.013 0.021 0.025 0.040 0.034 0.058s0.017 0.035 0.024 0.053l0.024-0.054c0.009-0.020 0.020-0.039 0.032-0.057l0.323-0.487c0.007-0.010 0.015-0.019 0.025-0.026 0.011-0.009 0.026-0.013 0.041-0.012h0.171l-0.525 0.753z"></path>
<path fill="#afb1b8" style="fill: var(--color1, #afb1b8)" d="M27.385 19.567c0.082 0.009 0.166 0.017 0.25 0.023 1.28-0.497 2.362-1.311 3.112-2.34s1.134-2.227 1.105-3.445l-1.41-1.225c0.287 1.296 0.153 2.637-0.387 3.871s-1.464 2.313-2.67 3.117z"></path>
<path fill="#afb1b8" style="fill: var(--color1, #afb1b8)" d="M26.881 19.51l0.038 0.007c1.288-0.801 2.271-1.919 2.82-3.209s0.64-2.695 0.261-4.031l-2.009-1.745c0.812 1.434 1.139 3.040 0.943 4.629s-0.908 3.098-2.053 4.35z"></path>
<path fill="#afb1b8" style="fill: var(--color1, #afb1b8)" d="M33.693 15.244c-0.341 1.338-1.17 2.545-2.363 3.441-0.349 0.263-0.724 0.498-1.123 0.7 0.972-0.248 1.865-0.687 2.61-1.282s1.324-1.332 1.69-2.152l-0.815-0.707z"></path>
<path fill="#afb1b8" style="fill: var(--color1, #afb1b8)" d="M33.374 15.047l-1.16-1.008c-0.022 1.149-0.398 2.272-1.089 3.252s-1.671 1.781-2.838 2.321h0.006c0.26-0 0.52-0.014 0.779-0.040 1.091-0.387 2.055-1.003 2.806-1.792s1.265-1.728 1.497-2.732z"></path>
<path fill="#afb1b8" style="fill: var(--color1, #afb1b8)" d="M27.049 9.795l-1.384-1.204c-1.237 0.415-2.301 1.145-3.052 2.095s-1.156 2.074-1.159 3.226v0c0.005 1.273 0.498 2.508 1.401 3.511s2.166 1.714 3.588 2.022c1.269-1.343 2.012-3.003 2.121-4.739s-0.422-3.456-1.515-4.911z"></path>
<path fill="#afb1b8" style="fill: var(--color1, #afb1b8)" d="M36.57 14.862c-0.005-1.51-0.698-2.958-1.927-4.026s-2.895-1.67-4.633-1.674c-0.803-0.001-1.6 0.128-2.349 0.38l8.471 7.36c0.29-0.651 0.439-1.342 0.438-2.040z"></path>
</symbol>
<symbol id="icon-Logo-brand" viewBox="0 0 57 32">
<path fill="#afb1b8" style="fill: var(--color1, #afb1b8)" d="M14.27 23.859c0.13 0.147 0.199 0.332 0.196 0.521 0.007 0.123-0.017 0.247-0.070 0.361s-0.132 0.216-0.233 0.297c-0.252 0.175-0.565 0.26-0.881 0.24h-1.549v-3.302h1.517c0.299-0.018 0.596 0.059 0.84 0.219 0.098 0.075 0.176 0.17 0.227 0.277s0.074 0.224 0.068 0.341c0.009 0.182-0.054 0.361-0.176 0.505-0.118 0.131-0.28 0.222-0.462 0.258 0.205 0.034 0.391 0.134 0.523 0.282zM12.454 23.36h0.648c0.147 0.010 0.294-0.029 0.412-0.11 0.049-0.040 0.087-0.090 0.111-0.146s0.034-0.116 0.028-0.176c0.005-0.060-0.005-0.12-0.029-0.175s-0.061-0.106-0.108-0.147c-0.122-0.083-0.273-0.123-0.425-0.111h-0.638v0.866zM13.578 24.627c0.052-0.041 0.093-0.093 0.12-0.151s0.038-0.121 0.034-0.184c0.004-0.064-0.008-0.127-0.035-0.186s-0.069-0.111-0.121-0.153c-0.127-0.086-0.283-0.128-0.44-0.119h-0.68v0.908h0.689c0.155 0.008 0.309-0.032 0.435-0.114z"></path>
<path fill="#afb1b8" style="fill: var(--color1, #afb1b8)" d="M17.371 25.278l-0.844-1.291h-0.317v1.291h-0.726v-3.302h1.374c0.346-0.022 0.689 0.078 0.957 0.281 0.192 0.179 0.308 0.415 0.327 0.666s-0.061 0.499-0.224 0.7c-0.17 0.178-0.401 0.296-0.655 0.336l0.898 1.32h-0.789zM16.21 23.538h0.594c0.412 0 0.618-0.167 0.618-0.5 0.004-0.068-0.007-0.136-0.033-0.2s-0.066-0.122-0.118-0.171c-0.13-0.099-0.298-0.147-0.467-0.134h-0.601l0.007 1.005z"></path>
<path fill="#afb1b8" style="fill: var(--color1, #afb1b8)" d="M21.339 24.614h-1.446l-0.255 0.665h-0.761l1.328-3.265h0.823l1.323 3.265h-0.761l-0.25-0.665zM21.145 24.114l-0.529-1.394-0.529 1.394h1.057z"></path>
<path fill="#afb1b8" style="fill: var(--color1, #afb1b8)" d="M26.305 25.278h-0.721l-1.616-2.245v2.245h-0.719v-3.302h0.719l1.616 2.258v-2.258h0.721v3.302z"></path>
<path fill="#afb1b8" style="fill: var(--color1, #afb1b8)" d="M30.417 24.488c-0.149 0.249-0.376 0.452-0.652 0.582-0.314 0.145-0.662 0.217-1.013 0.208h-1.283v-3.302h1.283c0.351-0.008 0.698 0.061 1.013 0.203 0.276 0.127 0.503 0.328 0.652 0.576 0.148 0.269 0.226 0.565 0.226 0.866s-0.077 0.598-0.226 0.866zM29.593 24.409c0.206-0.219 0.319-0.499 0.319-0.788s-0.113-0.569-0.319-0.788c-0.249-0.199-0.573-0.3-0.902-0.281h-0.5v2.137h0.5c0.329 0.019 0.654-0.082 0.902-0.281z"></path>
<path fill="#afb1b8" style="fill: var(--color1, #afb1b8)" d="M21.79 3.609c0 0 9.301 3.215 9.103 7.867v7.869c0 0-9.294-3.217-9.1-7.869l-0.004-7.867z"></path>
<path fill="#afb1b8" style="fill: var(--color1, #afb1b8)" d="M39.179 17.503c1.757-1.107 3.788-1.792 5.909-1.994v-2.463c-2.444 0.862-4.517 2.426-5.909 4.457z"></path>
<path fill="#afb1b8" style="fill: var(--color1, #afb1b8)" d="M38.124 18.245c1.438-2.651 3.93-4.696 6.964-5.715v-7.098c0 0-13.245 4.58-12.965 11.205v11.203c0 0 0.59-0.205 1.519-0.589 0-0.358 0-0.719 0.042-1.082 0.274-3.076 1.871-5.926 4.44-7.924z"></path>
<path fill="#afb1b8" style="fill: var(--color1, #afb1b8)" d="M36.864 22.407c0.070-0.777 0.225-1.546 0.463-2.294-1.599 1.725-2.568 3.866-2.77 6.122-0.019 0.213-0.030 0.426-0.035 0.645 0.752-0.331 1.628-0.744 2.548-1.229-0.235-1.067-0.304-2.159-0.206-3.244z"></path>
<path fill="#afb1b8" style="fill: var(--color1, #afb1b8)" d="M37.391 22.447c-0.088 0.982-0.033 1.969 0.164 2.938 3.619-1.983 7.685-5.046 7.528-8.748v-0.323c-2.585 0.265-5.004 1.3-6.885 2.946-0.44 1.020-0.712 2.094-0.807 3.188z"></path>
</symbol>
<symbol id="icon-Logo-cumpant" viewBox="0 0 57 32">
<path fill="#afb1b8" style="fill: var(--color1, #afb1b8)" d="M28.493 14.618c-0.236-0.315-0.349-0.686-0.323-1.061v-1.538c0-0.471 0.107-0.83 0.321-1.075s0.581-0.367 1.102-0.366c0.489 0 0.836 0.104 1.042 0.313 0.224 0.266 0.333 0.592 0.308 0.92v0.361h-0.875v-0.366c0.003-0.12-0.005-0.24-0.025-0.358-0.013-0.081-0.057-0.156-0.125-0.213-0.090-0.061-0.203-0.091-0.317-0.083-0.12-0.008-0.239 0.024-0.333 0.088-0.076 0.063-0.127 0.145-0.145 0.235-0.025 0.126-0.037 0.253-0.034 0.38v1.866c-0.014 0.18 0.025 0.36 0.112 0.524 0.044 0.055 0.104 0.099 0.175 0.127s0.149 0.038 0.226 0.029c0.112 0.008 0.223-0.022 0.31-0.084 0.071-0.061 0.117-0.141 0.13-0.227 0.020-0.124 0.030-0.249 0.027-0.374v-0.379h0.875v0.346c0.025 0.342-0.082 0.682-0.303 0.967-0.201 0.228-0.544 0.343-1.047 0.343s-0.884-0.122-1.1-0.375z"></path>
<path fill="#afb1b8" style="fill: var(--color1, #afb1b8)" d="M32.137 14.633c-0.221-0.239-0.332-0.588-0.332-1.050v-1.617c0-0.457 0.11-0.802 0.332-1.037s0.591-0.351 1.109-0.35c0.515 0 0.882 0.117 1.103 0.35 0.221 0.235 0.333 0.58 0.333 1.037v1.617c0 0.457-0.112 0.807-0.337 1.048s-0.591 0.361-1.1 0.361c-0.509 0-0.886-0.122-1.109-0.36zM33.654 14.245c0.079-0.15 0.115-0.314 0.105-0.479v-1.98c0.010-0.161-0.025-0.322-0.103-0.469-0.044-0.057-0.106-0.101-0.179-0.129s-0.152-0.037-0.231-0.027c-0.079-0.009-0.159 0-0.231 0.028s-0.135 0.072-0.18 0.129c-0.080 0.146-0.116 0.308-0.105 0.469v1.99c-0.011 0.165 0.025 0.329 0.105 0.479 0.051 0.050 0.114 0.091 0.185 0.119s0.147 0.042 0.225 0.042c0.078 0 0.154-0.014 0.225-0.042s0.134-0.068 0.185-0.119v-0.009z"></path>
<path fill="#afb1b8" style="fill: var(--color1, #afb1b8)" d="M35.735 10.626h0.942l0.708 2.984 0.725-2.984h0.917l0.092 4.308h-0.678l-0.072-2.994-0.699 2.994h-0.544l-0.725-3.005-0.067 3.005h-0.685l0.085-4.308z"></path>
<path fill="#afb1b8" style="fill: var(--color1, #afb1b8)" d="M40.176 10.626h1.468c0.846 0 1.268 0.408 1.268 1.223 0 0.781-0.445 1.171-1.335 1.17h-0.5v1.915h-0.906l0.005-4.308zM41.43 12.467c0.090 0.010 0.18 0.003 0.266-0.021s0.165-0.063 0.232-0.115c0.104-0.146 0.15-0.316 0.13-0.486 0.005-0.131-0.010-0.263-0.044-0.391-0.013-0.043-0.036-0.083-0.067-0.118s-0.070-0.065-0.114-0.087c-0.126-0.052-0.265-0.076-0.404-0.069h-0.352v1.287h0.352z"></path>
<path fill="#afb1b8" style="fill: var(--color1, #afb1b8)" d="M44.218 10.626h0.973l0.998 4.308h-0.844l-0.197-0.993h-0.868l-0.203 0.993h-0.857l0.998-4.308zM45.050 13.441l-0.339-1.808-0.339 1.808h0.678z"></path>
<path fill="#afb1b8" style="fill: var(--color1, #afb1b8)" d="M46.996 10.626h0.634l1.214 2.457v-2.457h0.752v4.308h-0.603l-1.221-2.565v2.565h-0.777l0.002-4.308z"></path>
<path fill="#afb1b8" style="fill: var(--color1, #afb1b8)" d="M51.357 13.291l-1.009-2.659h0.85l0.616 1.708 0.578-1.708h0.832l-0.997 2.659v1.642h-0.87v-1.642z"></path>
<path fill="#afb1b8" style="fill: var(--color1, #afb1b8)" d="M29.892 16.817v0.225h-0.739v1.75h-0.31v-1.75h-0.743v-0.225h1.792z"></path>
<path fill="#afb1b8" style="fill: var(--color1, #afb1b8)" d="M32.209 18.793h-0.239c-0.024 0.001-0.048-0.005-0.067-0.019-0.018-0.011-0.032-0.027-0.040-0.045l-0.214-0.469h-1.026l-0.214 0.469c-0.006 0.020-0.017 0.038-0.033 0.053-0.019 0.013-0.043 0.020-0.067 0.019h-0.239l0.906-1.976h0.315l0.917 1.968zM30.709 18.059h0.855l-0.362-0.804c-0.027-0.061-0.049-0.123-0.067-0.186-0.013 0.038-0.024 0.073-0.034 0.105l-0.033 0.083-0.359 0.802z"></path>
<path fill="#afb1b8" style="fill: var(--color1, #afb1b8)" d="M33.771 18.599c0.057 0.003 0.114 0.003 0.17 0 0.049-0.004 0.097-0.012 0.145-0.023 0.044-0.009 0.088-0.021 0.13-0.036 0.040-0.014 0.080-0.031 0.121-0.048v-0.444h-0.362c-0.009 0-0.018-0.001-0.026-0.003s-0.016-0.007-0.023-0.012c-0.006-0.004-0.011-0.010-0.014-0.016s-0.005-0.013-0.004-0.020v-0.152h0.703v0.757c-0.057 0.035-0.118 0.067-0.181 0.094-0.065 0.028-0.132 0.050-0.201 0.067-0.074 0.019-0.15 0.032-0.227 0.041-0.088 0.008-0.176 0.013-0.264 0.012-0.156 0.001-0.311-0.024-0.457-0.073-0.136-0.047-0.259-0.117-0.362-0.206-0.101-0.090-0.18-0.196-0.234-0.313-0.057-0.131-0.085-0.27-0.083-0.41-0.002-0.141 0.026-0.281 0.082-0.413 0.052-0.117 0.132-0.224 0.234-0.313 0.103-0.089 0.227-0.159 0.362-0.205 0.155-0.050 0.32-0.075 0.486-0.074 0.084-0 0.169 0.006 0.252 0.017 0.074 0.010 0.146 0.027 0.216 0.050 0.063 0.021 0.124 0.047 0.181 0.078 0.056 0.031 0.108 0.065 0.158 0.103l-0.087 0.122c-0.007 0.011-0.017 0.021-0.029 0.027s-0.027 0.010-0.041 0.010c-0.020-0.001-0.040-0.006-0.056-0.016-0.027-0.013-0.056-0.028-0.089-0.047-0.038-0.021-0.079-0.039-0.121-0.053-0.054-0.019-0.11-0.033-0.167-0.044-0.076-0.012-0.153-0.018-0.23-0.017-0.12-0.001-0.238 0.017-0.35 0.055-0.101 0.035-0.192 0.088-0.266 0.156-0.075 0.071-0.132 0.155-0.169 0.246-0.081 0.214-0.081 0.445 0 0.659 0.040 0.093 0.101 0.178 0.181 0.249 0.074 0.068 0.164 0.121 0.265 0.156 0.115 0.034 0.237 0.047 0.359 0.039z"></path>
<path fill="#afb1b8" style="fill: var(--color1, #afb1b8)" d="M36.659 18.567h0.989v0.225h-1.292v-1.976h0.31l-0.007 1.75z"></path>
<path fill="#afb1b8" style="fill: var(--color1, #afb1b8)" d="M38.678 18.792h-0.31v-1.976h0.31v1.976z"></path>
<path fill="#afb1b8" style="fill: var(--color1, #afb1b8)" d="M39.83 16.826c0.018 0.009 0.034 0.021 0.047 0.036l1.324 1.489c-0.002-0.023-0.002-0.047 0-0.070 0-0.022 0-0.044 0-0.064v-1.408h0.27v1.984h-0.156c-0.023 0.002-0.046-0.002-0.067-0.011-0.019-0.010-0.035-0.023-0.049-0.038l-1.323-1.488c0 0.023 0 0.045 0 0.067s0 0.042 0 0.061v1.408h-0.259v-1.976h0.161c0.017 0 0.035 0.003 0.051 0.009z"></path>
<path fill="#afb1b8" style="fill: var(--color1, #afb1b8)" d="M43.753 16.817v0.217h-1.098v0.652h0.89v0.21h-0.89v0.674h1.098v0.217h-1.417v-1.971h1.417z"></path>
<path fill="#afb1b8" style="fill: var(--color1, #afb1b8)" d="M11.286 4.616l13.757 3.372v11.818l-13.757-3.371v-11.819zM10.404 3.609v13.401l15.52 3.806v-13.399l-15.52-3.807z"></path>
<path fill="#afb1b8" style="fill: var(--color1, #afb1b8)" d="M18.722 27.036l-15.522-3.809v-13.399l15.522 3.807v13.401z"></path>
<path fill="#afb1b8" style="fill: var(--color1, #afb1b8)" d="M10.661 4.465l13.578 3.33-5.774 4.987-13.58-3.332 5.776-4.985zM10.404 3.609l-7.204 6.219 15.522 3.807 7.202-6.219-15.52-3.807z"></path>
<path fill="#afb1b8" style="fill: var(--color1, #afb1b8)" d="M19.595 26.282l6.329-5.465-6.329-1.553v7.018z"></path>
</symbol>
<symbol id="icon-Logo-foster-peters" viewBox="0 0 57 32">
<path fill="#2196f3" style="fill: var(--color2, #2196f3)" d="M12.878 11.255h-0.002c-1.279 0-2.316 0.921-2.316 2.058v0.001c0 1.137 1.037 2.058 2.316 2.058h0.002c1.279 0 2.316-0.921 2.316-2.058v-0.001c0-1.137-1.037-2.058-2.316-2.058z"></path>
<path fill="#2196f3" style="fill: var(--color2, #2196f3)" d="M29.971 10.597c-0.004-1.579-0.711-3.092-1.967-4.208s-2.958-1.745-4.735-1.749v0c-1.777 0.003-3.48 0.631-4.737 1.748s-1.964 2.63-1.968 4.209v8.706c0 0 13.405-1.327 13.406-8.704v-0.001z"></path>
<path fill="#2196f3" style="fill: var(--color2, #2196f3)" d="M5.867 22.16c0.003 1.098 0.496 2.151 1.369 2.928s2.058 1.215 3.294 1.218c1.236-0.003 2.42-0.441 3.294-1.218s1.366-1.829 1.37-2.927v-6.057c0 0-9.327 0.924-9.327 6.056zM10.53 23.245c-0.242 0-0.478-0.064-0.678-0.183s-0.357-0.289-0.45-0.487c-0.092-0.198-0.117-0.417-0.069-0.627s0.163-0.404 0.334-0.556c0.171-0.152 0.388-0.255 0.625-0.297s0.482-0.020 0.706 0.062c0.223 0.082 0.414 0.221 0.548 0.4s0.206 0.388 0.206 0.603c0.001 0.143-0.031 0.284-0.092 0.417s-0.151 0.252-0.264 0.353c-0.114 0.101-0.248 0.182-0.397 0.236s-0.308 0.083-0.468 0.083v-0.004z"></path>
<path fill="#2196f3" style="fill: var(--color2, #2196f3)" d="M19.956 22.647h-0.9v0.93h-0.469v-2.275h1.481v0.38h-1.012v0.588h0.9v0.378zM22.209 22.491c0 0.224-0.040 0.42-0.119 0.589s-0.193 0.299-0.341 0.391c-0.147 0.092-0.316 0.137-0.506 0.137-0.189 0-0.357-0.045-0.505-0.136s-0.262-0.22-0.344-0.387c-0.081-0.169-0.122-0.363-0.123-0.581v-0.112c0-0.224 0.040-0.421 0.12-0.591 0.081-0.171 0.195-0.302 0.342-0.392 0.148-0.092 0.317-0.137 0.506-0.137s0.358 0.046 0.505 0.137c0.148 0.091 0.262 0.221 0.342 0.392 0.081 0.17 0.122 0.366 0.122 0.589v0.102zM21.734 22.388c0-0.238-0.043-0.42-0.128-0.544s-0.207-0.186-0.366-0.186c-0.157 0-0.279 0.061-0.364 0.184-0.085 0.122-0.129 0.301-0.13 0.538v0.111c0 0.232 0.043 0.412 0.128 0.541s0.208 0.192 0.369 0.192c0.157 0 0.278-0.061 0.363-0.184 0.084-0.124 0.127-0.304 0.128-0.541v-0.111zM23.73 22.98c0-0.089-0.031-0.156-0.094-0.203-0.063-0.048-0.175-0.098-0.337-0.15-0.163-0.053-0.291-0.105-0.386-0.156-0.258-0.14-0.387-0.328-0.387-0.564 0-0.123 0.034-0.232 0.103-0.328 0.070-0.097 0.169-0.172 0.298-0.227 0.13-0.054 0.276-0.081 0.438-0.081 0.163 0 0.307 0.030 0.434 0.089 0.127 0.058 0.226 0.141 0.295 0.248s0.106 0.229 0.106 0.366h-0.469c0-0.104-0.033-0.185-0.098-0.242s-0.158-0.087-0.277-0.087c-0.115 0-0.204 0.024-0.267 0.073-0.064 0.048-0.095 0.111-0.095 0.191 0 0.074 0.037 0.136 0.111 0.186 0.075 0.050 0.185 0.097 0.33 0.141 0.267 0.080 0.461 0.18 0.583 0.298s0.183 0.267 0.183 0.444c0 0.197-0.075 0.352-0.223 0.464-0.149 0.111-0.349 0.167-0.602 0.167-0.175 0-0.334-0.032-0.478-0.095-0.144-0.065-0.254-0.153-0.33-0.264s-0.113-0.241-0.113-0.388h0.47c0 0.251 0.15 0.377 0.45 0.377 0.111 0 0.198-0.022 0.261-0.067 0.063-0.046 0.094-0.109 0.094-0.191zM26.231 21.682h-0.697v1.895h-0.469v-1.895h-0.687v-0.38h1.853v0.38zM27.869 22.591h-0.9v0.609h1.056v0.377h-1.525v-2.275h1.522v0.38h-1.053v0.542h0.9v0.367zM29.142 22.744h-0.373v0.833h-0.469v-2.275h0.845c0.269 0 0.476 0.060 0.622 0.18s0.219 0.289 0.219 0.508c0 0.155-0.034 0.285-0.102 0.389-0.067 0.103-0.168 0.185-0.305 0.247l0.492 0.93v0.022h-0.503l-0.427-0.833zM28.769 22.365h0.378c0.118 0 0.209-0.030 0.273-0.089 0.065-0.060 0.097-0.143 0.097-0.248 0-0.107-0.031-0.192-0.092-0.253-0.060-0.061-0.154-0.092-0.28-0.092h-0.377v0.683zM31.609 22.775v0.802h-0.469v-2.275h0.887c0.171 0 0.321 0.031 0.45 0.094s0.23 0.152 0.3 0.267c0.070 0.115 0.105 0.245 0.105 0.392 0 0.223-0.077 0.399-0.23 0.528-0.152 0.128-0.363 0.192-0.633 0.192h-0.411zM31.609 22.396h0.419c0.124 0 0.218-0.029 0.283-0.088 0.066-0.058 0.098-0.142 0.098-0.25 0-0.111-0.033-0.202-0.098-0.27s-0.156-0.104-0.272-0.106h-0.43v0.714zM34.575 22.591h-0.9v0.609h1.056v0.377h-1.525v-2.275h1.522v0.38h-1.053v0.542h0.9v0.367zM36.75 21.682h-0.697v1.895h-0.469v-1.895h-0.688v-0.38h1.853v0.38zM38.387 22.591h-0.9v0.609h1.056v0.377h-1.525v-2.275h1.522v0.38h-1.053v0.542h0.9v0.367zM39.661 22.744h-0.373v0.833h-0.469v-2.275h0.845c0.269 0 0.476 0.060 0.622 0.18s0.219 0.289 0.219 0.508c0 0.155-0.034 0.285-0.102 0.389-0.067 0.103-0.168 0.185-0.305 0.247l0.492 0.93v0.022h-0.503l-0.427-0.833zM39.287 22.365h0.378c0.118 0 0.209-0.030 0.273-0.089 0.065-0.060 0.097-0.143 0.097-0.248 0-0.107-0.031-0.192-0.092-0.253-0.060-0.061-0.154-0.092-0.28-0.092h-0.377v0.683zM42.042 22.98c0-0.089-0.031-0.156-0.094-0.203-0.063-0.048-0.175-0.098-0.337-0.15-0.163-0.053-0.291-0.105-0.386-0.156-0.258-0.14-0.388-0.328-0.388-0.564 0-0.123 0.034-0.232 0.103-0.328 0.070-0.097 0.169-0.172 0.298-0.227 0.13-0.054 0.276-0.081 0.438-0.081 0.163 0 0.307 0.030 0.434 0.089 0.127 0.058 0.226 0.141 0.295 0.248 0.071 0.107 0.106 0.229 0.106 0.366h-0.469c0-0.104-0.033-0.185-0.098-0.242s-0.158-0.087-0.277-0.087c-0.115 0-0.204 0.024-0.267 0.073-0.064 0.048-0.095 0.111-0.095 0.191 0 0.074 0.037 0.136 0.111 0.186 0.075 0.050 0.185 0.097 0.33 0.141 0.267 0.080 0.461 0.18 0.583 0.298s0.183 0.267 0.183 0.444c0 0.197-0.074 0.352-0.223 0.464-0.149 0.111-0.349 0.167-0.602 0.167-0.175 0-0.334-0.032-0.478-0.095-0.144-0.065-0.254-0.153-0.33-0.264-0.075-0.111-0.112-0.241-0.112-0.388h0.47c0 0.251 0.15 0.377 0.45 0.377 0.111 0 0.198-0.022 0.261-0.067 0.063-0.046 0.094-0.109 0.094-0.191z"></path>
</symbol>
<symbol id="icon-clubs" viewBox="0 0 32 32">
<path d="M24.588 12.274c-1.845 0-3.503 0.769-4.683 2.022-0.5 0.531-1.368 1.16-2.306 1.713 0.441-1.683 1.834-3.803 2.801-4.733 1.239-1.193 2-2.87 2-4.734 0-3.59-2.859-6.503-6.4-6.541-3.541 0.038-6.4 2.951-6.4 6.541 0 1.865 0.761 3.542 2 4.734 0.967 0.93 2.36 3.050 2.801 4.733-0.939-0.553-1.806-1.182-2.306-1.713-1.18-1.253-2.838-2.022-4.683-2.022-3.575 0-6.471 2.927-6.471 6.541s2.897 6.542 6.471 6.542c1.845 0 3.503-0.792 4.683-2.045 0.525-0.558 1.451-1.254 2.447-1.832-0.094 4.615-2.298 8.005-4.541 9.341v1.179h12v-1.179c-2.244-1.335-4.448-4.726-4.541-9.341 0.995 0.578 1.922 1.274 2.447 1.832 1.18 1.253 2.838 2.045 4.683 2.045 3.575 0 6.471-2.928 6.471-6.542s-2.897-6.541-6.471-6.541z"></path>
</symbol>
</defs>
</svg>
